<?xml version="1.0" encoding="UTF-8"?>
<!DOCTYPE svg PUBLIC "-//W3C//DTD SVG 1.1//EN" "http://www.w3.org/Graphics/SVG/1.1/DTD/svg11.dtd">
<svg xmlns="http://www.w3.org/2000/svg" version="1.1" width="166px" height="168px" style="shape-rendering:geometricPrecision; text-rendering:geometricPrecision; image-rendering:optimizeQuality; fill-rule:evenodd; clip-rule:evenodd" xmlns:xlink="http://www.w3.org/1999/xlink">
<g><path style="opacity:0.04" fill="#fefefe" d="M 84.5,5.5 C 86.861,5.67412 89.1944,6.00745 91.5,6.5C 91.5,7.5 91.5,8.5 91.5,9.5C 87.1161,9.82557 82.7828,9.49224 78.5,8.5C 80.2818,7.01587 82.2818,6.01587 84.5,5.5 Z"/></g>
<g><path style="opacity:0.987" fill="#f6f7f8" d="M 98.5,18.5 C 98.5408,14.7566 97.8741,14.5899 96.5,18C 86.991,18.1701 77.6577,18.6701 68.5,19.5C 66.8329,16.6916 67.4995,14.525 70.5,13C 79.1667,12.3333 87.8333,12.3333 96.5,13C 99.4103,14.1729 100.077,16.0062 98.5,18.5 Z"/></g>
<g><path style="opacity:0.951" fill="#fafbfb" d="M 59.5,15.5 C 57.5834,20.1742 54.2501,23.3408 49.5,25C 44.5551,27.9456 41.0551,32.1122 39,37.5C 37.5943,45.7492 37.0943,54.0826 37.5,62.5C 36.7784,62.0825 36.2784,61.4158 36,60.5C 34.6439,61.3802 33.1439,61.7135 31.5,61.5C 31.8235,54.9779 31.4902,48.6446 30.5,42.5C 32.4401,29.7197 39.4401,20.8863 51.5,16C 54.146,15.5026 56.8127,15.3359 59.5,15.5 Z"/></g>
<g><path style="opacity:1" fill="#e9eced" d="M 120.5,19.5 C 126.3,24.1717 130.467,30.1717 133,37.5C 133.5,60.4976 133.667,83.4976 133.5,106.5C 132.566,110.373 131.066,114.039 129,117.5C 126.218,119.771 124.051,122.437 122.5,125.5C 121.053,124.866 120.387,123.699 120.5,122C 121.054,119.176 121.554,116.343 122,113.5C 124.146,110.874 125.479,107.874 126,104.5C 126.667,83.8333 126.667,63.1667 126,42.5C 125.495,40.4817 124.995,38.4817 124.5,36.5C 125.043,36.44 125.376,36.1067 125.5,35.5C 122.663,29.9089 118.329,25.9089 112.5,23.5C 111.537,23.9698 111.537,24.6365 112.5,25.5C 108.669,23.3174 106.336,19.984 105.5,15.5C 111.174,14.8438 116.174,16.1771 120.5,19.5 Z"/></g>
<g><path style="opacity:1" fill="#8c9098" d="M 98.5,18.5 C 98.3893,19.1174 98.056,19.6174 97.5,20C 87.756,20.8057 78.0893,20.639 68.5,19.5C 77.6577,18.6701 86.991,18.1701 96.5,18C 97.8741,14.5899 98.5408,14.7566 98.5,18.5 Z"/></g>
<g><path style="opacity:0.913" fill="#fbfcfc" d="M 102.5,23.5 C 102.178,24.8582 102.178,26.5248 102.5,28.5C 89.4017,29.1493 76.4017,29.816 63.5,30.5C 60.4119,28.6353 60.0786,26.4686 62.5,24C 63.8732,23.1251 65.3732,22.6251 67,22.5C 79.0532,23.4894 90.8865,23.8227 102.5,23.5 Z"/></g>
<g><path style="opacity:0.953" fill="#8e8f9e" d="M 102.5,23.5 C 106.5,25.8333 106.5,28.1667 102.5,30.5C 103.506,29.6043 103.506,28.9377 102.5,28.5C 102.178,26.5248 102.178,24.8582 102.5,23.5 Z"/></g>
<g><path style="opacity:0.024" fill="#ededef" d="M 49.5,27.5 C 49.0269,28.9063 48.0269,29.573 46.5,29.5C 46.9731,28.0937 47.9731,27.427 49.5,27.5 Z"/></g>
<g><path style="opacity:1" fill="#3e404c" d="M 102.5,28.5 C 103.506,28.9377 103.506,29.6043 102.5,30.5C 89.5633,30.6035 76.5633,30.6035 63.5,30.5C 76.4017,29.816 89.4017,29.1493 102.5,28.5 Z"/></g>
<g><path style="opacity:0.412" fill="#b3b4ba" d="M 124.5,36.5 C 122.697,34.5187 121.03,32.352 119.5,30C 117.102,28.4758 114.769,26.9758 112.5,25.5C 111.537,24.6365 111.537,23.9698 112.5,23.5C 118.329,25.9089 122.663,29.9089 125.5,35.5C 125.376,36.1067 125.043,36.44 124.5,36.5 Z"/></g>
<g><path style="opacity:0.988" fill="#f7f8f8" d="M 97.5,35.5 C 96.5655,36.5676 96.2322,37.901 96.5,39.5C 87.1667,39.5 77.8333,39.5 68.5,39.5C 66.9231,37.0062 67.5897,35.1729 70.5,34C 79.1667,33.3333 87.8333,33.3333 96.5,34C 97.056,34.3826 97.3893,34.8826 97.5,35.5 Z"/></g>
<g><path style="opacity:0.071" fill="#e6e6e8" d="M 43.5,33.5 C 43.0075,35.8185 42.0075,37.8185 40.5,39.5C 40.461,36.911 41.461,34.911 43.5,33.5 Z"/></g>
<g><path style="opacity:1" fill="#747783" d="M 97.5,35.5 C 100.07,37.1766 100.07,39.0099 97.5,41C 88.1667,41.6667 78.8333,41.6667 69.5,41C 68.944,40.6174 68.6107,40.1174 68.5,39.5C 77.8333,39.5 87.1667,39.5 96.5,39.5C 96.2322,37.901 96.5655,36.5676 97.5,35.5 Z"/></g>
<g><path style="opacity:1" fill="#603dfb" d="M 49.5,34.5 C 50.5,34.5 51.5,34.5 52.5,34.5C 52.5,43.1667 52.5,51.8333 52.5,60.5C 51.8501,60.1961 51.1835,59.8627 50.5,59.5C 49.5023,51.5277 49.169,43.5277 49.5,35.5C 49.5,35.1667 49.5,34.8333 49.5,34.5 Z"/></g>
<g><path style="opacity:1" fill="#413b81" d="M 49.5,34.5 C 52.3168,33.0829 53.9835,34.0829 54.5,37.5C 53.5596,45.7977 53.2262,54.131 53.5,62.5C 53.8261,71.0168 53.4927,79.3501 52.5,87.5C 52.5,83.5 52.5,79.5 52.5,75.5C 52.5,70.5 52.5,65.5 52.5,60.5C 52.5,51.8333 52.5,43.1667 52.5,34.5C 51.5,34.5 50.5,34.5 49.5,34.5 Z"/></g>
<g><path style="opacity:1" fill="#a53bd7" d="M 105.5,37.5 C 106.5,36.1667 107.5,36.1667 108.5,37.5C 108.5,53.8333 108.5,70.1667 108.5,86.5C 108.167,86.5 107.833,86.5 107.5,86.5C 108.152,69.7991 107.485,53.4658 105.5,37.5 Z"/></g>
<g><path style="opacity:1" fill="#6f5cfd" d="M 60.5,37.5 C 60.5,46.5 60.5,55.5 60.5,64.5C 59.391,64.4431 58.391,64.1098 57.5,63.5C 57.5,55.1667 57.5,46.8333 57.5,38.5C 58.221,36.6182 59.221,36.2848 60.5,37.5 Z"/></g>
<g><path style="opacity:1" fill="#4b4682" d="M 60.5,37.5 C 62.0334,39.6345 62.7001,42.1345 62.5,45C 61.5969,59.4843 61.2636,73.9843 61.5,88.5C 61.1667,88.5 60.8333,88.5 60.5,88.5C 60.5,85.5 60.5,82.5 60.5,79.5C 60.5,74.5 60.5,69.5 60.5,64.5C 60.5,55.5 60.5,46.5 60.5,37.5 Z"/></g>
<g><path style="opacity:1" fill="#a47bf9" d="M 77.5,47.5 C 76.5111,52.9753 76.1778,58.642 76.5,64.5C 75.5,65.1667 74.5,65.8333 73.5,66.5C 73.5,59.8333 73.5,53.1667 73.5,46.5C 75.1284,45.1472 76.4617,45.4805 77.5,47.5 Z"/></g>
<g><path style="opacity:1" fill="#8373fc" d="M 68.5,45.5 C 68.5,53.8333 68.5,62.1667 68.5,70.5C 67.391,70.4431 66.391,70.1098 65.5,69.5C 65.8064,66.6146 65.4731,63.9479 64.5,61.5C 64.3342,56.8215 64.5008,52.1548 65,47.5C 65.7096,46.0267 66.8762,45.3601 68.5,45.5 Z"/></g>
<g><path style="opacity:0.984" fill="#d43cf7" d="M 116.5,33.5 C 116.5,54.5 116.5,75.5 116.5,96.5C 115.5,96.5 114.5,96.5 113.5,96.5C 113.813,92.9581 113.479,89.6248 112.5,86.5C 112.167,68.8208 112.5,51.1541 113.5,33.5C 114.687,32.3473 115.687,32.3473 116.5,33.5 Z"/></g>
<g><path style="opacity:1" fill="#676dfd" d="M 49.5,35.5 C 49.169,43.5277 49.5023,51.5277 50.5,59.5C 51.1835,59.8627 51.8501,60.1961 52.5,60.5C 52.5,65.5 52.5,70.5 52.5,75.5C 51.5,75.5 50.5,75.5 49.5,75.5C 49.7845,73.5853 49.4511,71.9187 48.5,70.5C 48.1717,58.6547 48.5051,46.988 49.5,35.5 Z"/></g>
<g><path style="opacity:1" fill="#70727f" d="M 59.5,15.5 C 59.7631,21.949 56.4298,25.949 49.5,27.5C 47.9731,27.427 46.9731,28.0937 46.5,29.5C 45.5,30.8333 44.5,32.1667 43.5,33.5C 41.461,34.911 40.461,36.911 40.5,39.5C 39.5333,60.8001 39.2,82.1334 39.5,103.5C 39.2792,106.097 38.7792,106.097 38,103.5C 37.5001,89.8374 37.3334,76.1707 37.5,62.5C 37.0943,54.0826 37.5943,45.7492 39,37.5C 41.0551,32.1122 44.5551,27.9456 49.5,25C 54.2501,23.3408 57.5834,20.1742 59.5,15.5 Z"/></g>
<g><path style="opacity:1" fill="#9ea4b0" d="M 120.5,19.5 C 127.626,23.4781 132.459,29.4781 135,37.5C 135.83,61.3369 135.663,85.0036 134.5,108.5C 134.672,107.508 134.338,106.842 133.5,106.5C 133.667,83.4976 133.5,60.4976 133,37.5C 130.467,30.1717 126.3,24.1717 120.5,19.5 Z"/></g>
<g><path style="opacity:1" fill="#cb8efa" d="M 92.5,48.5 C 92.5,58.5 92.5,68.5 92.5,78.5C 91.9779,80.2191 90.9779,81.5525 89.5,82.5C 89.1678,70.8143 89.5011,59.1477 90.5,47.5C 91.1835,47.8627 91.8501,48.1961 92.5,48.5 Z"/></g>
<g><path style="opacity:1" fill="#5d96fe" d="M 65.5,69.5 C 66.391,70.1098 67.391,70.4431 68.5,70.5C 68.5,75.8333 68.5,81.1667 68.5,86.5C 67.5,86.5 66.5,86.5 65.5,86.5C 65.5,80.8333 65.5,75.1667 65.5,69.5 Z"/></g>
<g><path style="opacity:1" fill="#8d8dfb" d="M 76.5,64.5 C 76.5,71.5 76.5,78.5 76.5,85.5C 75.5,86.8333 74.5,86.8333 73.5,85.5C 73.5,79.1667 73.5,72.8333 73.5,66.5C 74.5,65.8333 75.5,65.1667 76.5,64.5 Z"/></g>
<g><path style="opacity:1" fill="#c35ffb" d="M 100.5,46.5 C 100.5,59.5 100.5,72.5 100.5,85.5C 98.6161,84.6613 97.2828,83.328 96.5,81.5C 96.3335,69.8286 96.5001,58.1619 97,46.5C 98.3493,43.9296 99.516,43.9296 100.5,46.5 Z"/></g>
<g><path style="opacity:1" fill="#4f86fe" d="M 57.5,63.5 C 58.391,64.1098 59.391,64.4431 60.5,64.5C 60.5,69.5 60.5,74.5 60.5,79.5C 59.5041,79.4142 58.6708,79.7476 58,80.5C 57.5006,74.8431 57.3339,69.1764 57.5,63.5 Z"/></g>
<g><path style="opacity:1" fill="#cb44fd" d="M 105.5,37.5 C 107.485,53.4658 108.152,69.7991 107.5,86.5C 107.663,88.8568 107.497,91.1902 107,93.5C 106.015,91.8251 105.181,90.1585 104.5,88.5C 104.818,72.4522 104.485,56.4522 103.5,40.5C 103.942,39.2613 104.609,38.2613 105.5,37.5 Z"/></g>
<g><path style="opacity:1" fill="#eaedee" d="M 30.5,42.5 C 31.4902,48.6446 31.8235,54.9779 31.5,61.5C 33.1439,61.7135 34.6439,61.3802 36,60.5C 36.2784,61.4158 36.7784,62.0825 37.5,62.5C 37.3334,76.1707 37.5001,89.8374 38,103.5C 38.7792,106.097 39.2792,106.097 39.5,103.5C 40.404,104.209 40.7373,105.209 40.5,106.5C 39.9033,106.735 39.5699,107.235 39.5,108C 40.8274,110.453 41.6607,112.953 42,115.5C 38.7995,114.394 35.9662,112.727 33.5,110.5C 33.0576,109.261 32.3909,108.261 31.5,107.5C 30.5219,85.8789 30.1886,64.2122 30.5,42.5 Z"/></g>
<g><path style="opacity:1" fill="#372357" d="M 116.5,33.5 C 117.664,66.9975 117.831,100.664 117,134.5C 115.708,135.791 114.542,135.791 113.5,134.5C 116.171,132.653 117.171,129.986 116.5,126.5C 116.5,122.167 116.5,117.833 116.5,113.5C 116.5,107.833 116.5,102.167 116.5,96.5C 116.5,75.5 116.5,54.5 116.5,33.5 Z"/></g>
<g><path style="opacity:0.549" fill="#e9dcfd" d="M 93.5,47.5 C 92.8333,47.5 92.5,47.8333 92.5,48.5C 91.8501,48.1961 91.1835,47.8627 90.5,47.5C 89.5011,59.1477 89.1678,70.8143 89.5,82.5C 89.5,90.5 89.5,98.5 89.5,106.5C 89.1667,106.5 88.8333,106.5 88.5,106.5C 88.3334,86.4972 88.5,66.4972 89,46.5C 90.9151,45.0844 92.4151,45.4178 93.5,47.5 Z"/></g>
<g><path style="opacity:1" fill="#44a5fd" d="M 48.5,70.5 C 49.4511,71.9187 49.7845,73.5853 49.5,75.5C 50.5,75.5 51.5,75.5 52.5,75.5C 52.5,79.5 52.5,83.5 52.5,87.5C 52.5,88.1667 52.5,88.8333 52.5,89.5C 51.1667,89.5 49.8333,89.5 48.5,89.5C 48.5,83.1667 48.5,76.8333 48.5,70.5 Z"/></g>
<g><path style="opacity:1" fill="#232f69" d="M 68.5,45.5 C 69.2674,46.172 69.9341,47.0053 70.5,48C 69.5064,69.4245 69.1731,90.9245 69.5,112.5C 69.1667,112.5 68.8333,112.5 68.5,112.5C 68.5,111.833 68.5,111.167 68.5,110.5C 68.5,102.5 68.5,94.5 68.5,86.5C 68.5,81.1667 68.5,75.8333 68.5,70.5C 68.5,62.1667 68.5,53.8333 68.5,45.5 Z"/></g>
<g><path style="opacity:1" fill="#ac79fb" d="M 96.5,81.5 C 97.2828,83.328 98.6161,84.6613 100.5,85.5C 100.666,90.1785 100.499,94.8452 100,99.5C 98.4499,98.4092 97.2832,97.0758 96.5,95.5C 96.5,90.8333 96.5,86.1667 96.5,81.5 Z"/></g>
<g><path style="opacity:1" fill="#74b9fd" d="M 57.5,38.5 C 57.5,46.8333 57.5,55.1667 57.5,63.5C 57.3339,69.1764 57.5006,74.8431 58,80.5C 58.6708,79.7476 59.5041,79.4142 60.5,79.5C 60.5,82.5 60.5,85.5 60.5,88.5C 60.5,90.8333 60.5,93.1667 60.5,95.5C 59.5,95.5 58.5,95.5 57.5,95.5C 57.7845,93.5853 57.4511,91.9187 56.5,90.5C 56.17,72.992 56.5033,55.6586 57.5,38.5 Z"/></g>
<g><path style="opacity:1" fill="#2f2f4c" d="M 93.5,47.5 C 93.1708,81.7026 93.5041,116.036 94.5,150.5C 94.6158,153.271 93.4491,155.271 91,156.5C 90.2828,155.956 89.7828,155.289 89.5,154.5C 92.0838,153.952 93.0838,152.285 92.5,149.5C 92.5,144.833 92.5,140.167 92.5,135.5C 92.5,127.167 92.5,118.833 92.5,110.5C 92.5,99.8333 92.5,89.1667 92.5,78.5C 92.5,68.5 92.5,58.5 92.5,48.5C 92.5,47.8333 92.8333,47.5 93.5,47.5 Z"/></g>
<g><path style="opacity:1" fill="#5ebbfb" d="M 73.5,85.5 C 74.5,86.8333 75.5,86.8333 76.5,85.5C 76.5,89.8333 76.5,94.1667 76.5,98.5C 75.5,98.5 74.5,98.5 73.5,98.5C 73.5,94.1667 73.5,89.8333 73.5,85.5 Z"/></g>
<g><path style="opacity:1" fill="#39c9fd" d="M 48.5,89.5 C 49.8333,89.5 51.1667,89.5 52.5,89.5C 52.5,94.8333 52.5,100.167 52.5,105.5C 50.5695,105.229 49.2362,104.229 48.5,102.5C 48.5,98.1667 48.5,93.8333 48.5,89.5 Z"/></g>
<g><path style="opacity:1" fill="#a3a5f8" d="M 92.5,78.5 C 92.5,89.1667 92.5,99.8333 92.5,110.5C 91.5,110.5 90.5,110.5 89.5,110.5C 89.5,109.167 89.5,107.833 89.5,106.5C 89.5,98.5 89.5,90.5 89.5,82.5C 90.9779,81.5525 91.9779,80.2191 92.5,78.5 Z"/></g>
<g><path style="opacity:1" fill="#3acffe" d="M 65.5,86.5 C 66.5,86.5 67.5,86.5 68.5,86.5C 68.5,94.5 68.5,102.5 68.5,110.5C 67.609,109.89 66.609,109.557 65.5,109.5C 65.5,101.833 65.5,94.1667 65.5,86.5 Z"/></g>
<g><path style="opacity:1" fill="#a65cfc" d="M 113.5,96.5 C 114.5,96.5 115.5,96.5 116.5,96.5C 116.5,102.167 116.5,107.833 116.5,113.5C 115.5,113.5 114.5,113.5 113.5,113.5C 113.5,107.833 113.5,102.167 113.5,96.5 Z"/></g>
<g><path style="opacity:1" fill="#a16af7" d="M 107.5,86.5 C 107.833,86.5 108.167,86.5 108.5,86.5C 108.666,96.5056 108.5,106.506 108,116.5C 107.667,117.167 107.333,117.833 107,118.5C 106.015,116.825 105.181,115.158 104.5,113.5C 104.5,105.167 104.5,96.8333 104.5,88.5C 105.181,90.1585 106.015,91.8251 107,93.5C 107.497,91.1902 107.663,88.8568 107.5,86.5 Z"/></g>
<g><path style="opacity:1" fill="#748ea9" d="M 53.5,62.5 C 54.6631,85.9964 54.8298,109.663 54,133.5C 52.3499,136.106 50.8499,136.106 49.5,133.5C 50.5,133.5 51.5,133.5 52.5,133.5C 52.5,124.167 52.5,114.833 52.5,105.5C 52.5,100.167 52.5,94.8333 52.5,89.5C 52.5,88.8333 52.5,88.1667 52.5,87.5C 53.4927,79.3501 53.8261,71.0168 53.5,62.5 Z"/></g>
<g><path style="opacity:0.996" fill="#6f66b0" d="M 100.5,46.5 C 101.18,79.0203 101.847,111.687 102.5,144.5C 102.457,145.416 102.124,146.083 101.5,146.5C 100.518,143.038 100.185,139.371 100.5,135.5C 100.5,126.167 100.5,116.833 100.5,107.5C 99.0413,107.567 97.7079,107.234 96.5,106.5C 96.5,102.833 96.5,99.1667 96.5,95.5C 97.2832,97.0758 98.4499,98.4092 100,99.5C 100.499,94.8452 100.666,90.1785 100.5,85.5C 100.5,72.5 100.5,59.5 100.5,46.5 Z"/></g>
<g><path style="opacity:1" fill="#c4c8cd" d="M 40.5,106.5 C 41.8333,109.167 43.1667,111.833 44.5,114.5C 43.5184,117.962 43.185,121.629 43.5,125.5C 36.7587,121.409 32.7587,115.409 31.5,107.5C 32.3909,108.261 33.0576,109.261 33.5,110.5C 35.9662,112.727 38.7995,114.394 42,115.5C 41.6607,112.953 40.8274,110.453 39.5,108C 39.5699,107.235 39.9033,106.735 40.5,106.5 Z"/></g>
<g><path style="opacity:1" fill="#97e8fc" d="M 73.5,46.5 C 73.5,53.1667 73.5,59.8333 73.5,66.5C 73.5,72.8333 73.5,79.1667 73.5,85.5C 73.5,89.8333 73.5,94.1667 73.5,98.5C 74.5,98.5 75.5,98.5 76.5,98.5C 76.5,108.167 76.5,117.833 76.5,127.5C 75.8347,125.302 75.1681,122.969 74.5,120.5C 73.8333,128.99 73.1666,137.324 72.5,145.5C 72.1684,112.329 72.5017,79.3291 73.5,46.5 Z"/></g>
<g><path style="opacity:1" fill="#5debfe" d="M 56.5,90.5 C 57.4511,91.9187 57.7845,93.5853 57.5,95.5C 58.5,95.5 59.5,95.5 60.5,95.5C 60.5,105.167 60.5,114.833 60.5,124.5C 59.8386,123.282 59.1719,121.949 58.5,120.5C 57.5033,127.134 57.17,133.8 57.5,140.5C 57.5,140.833 57.5,141.167 57.5,141.5C 56.5034,124.675 56.1701,107.675 56.5,90.5 Z"/></g>
<g><path style="opacity:1" fill="#55546a" d="M 44.5,114.5 C 44.9421,117.576 45.2755,120.743 45.5,124C 44.9558,124.717 44.2891,125.217 43.5,125.5C 43.185,121.629 43.5184,117.962 44.5,114.5 Z"/></g>
<g><path style="opacity:1" fill="#68d1f9" d="M 89.5,110.5 C 90.5,110.5 91.5,110.5 92.5,110.5C 92.5,118.833 92.5,127.167 92.5,135.5C 92.0984,132.523 91.0984,129.857 89.5,127.5C 89.5,121.833 89.5,116.167 89.5,110.5 Z"/></g>
<g><path style="opacity:1" fill="#7fbefb" d="M 96.5,106.5 C 97.7079,107.234 99.0413,107.567 100.5,107.5C 100.5,116.833 100.5,126.167 100.5,135.5C 99.6862,133.369 99.1862,131.036 99,128.5C 98.3292,129.252 97.4959,129.586 96.5,129.5C 96.5,121.833 96.5,114.167 96.5,106.5 Z"/></g>
<g><path style="opacity:0.976" fill="#3f4155" d="M 133.5,106.5 C 134.338,106.842 134.672,107.508 134.5,108.5C 134.128,112.297 132.794,115.63 130.5,118.5C 128.167,120.167 126.167,122.167 124.5,124.5C 124.158,125.338 123.492,125.672 122.5,125.5C 124.051,122.437 126.218,119.771 129,117.5C 131.066,114.039 132.566,110.373 133.5,106.5 Z"/></g>
<g><path style="opacity:0.02" fill="#f6f6f7" d="M 130.5,118.5 C 129.5,121.5 127.5,123.5 124.5,124.5C 126.167,122.167 128.167,120.167 130.5,118.5 Z"/></g>
<g><path style="opacity:1" fill="#46ecfa" d="M 48.5,102.5 C 49.2362,104.229 50.5695,105.229 52.5,105.5C 52.5,114.833 52.5,124.167 52.5,133.5C 51.5,133.5 50.5,133.5 49.5,133.5C 48.5058,123.347 48.1724,113.014 48.5,102.5 Z"/></g>
<g><path style="opacity:1" fill="#a68ffd" d="M 112.5,86.5 C 113.479,89.6248 113.813,92.9581 113.5,96.5C 113.5,102.167 113.5,107.833 113.5,113.5C 114.5,113.5 115.5,113.5 116.5,113.5C 116.5,117.833 116.5,122.167 116.5,126.5C 114.616,125.661 113.283,124.328 112.5,122.5C 112.5,110.5 112.5,98.5 112.5,86.5 Z"/></g>
<g><path style="opacity:1" fill="#5968a5" d="M 108.5,37.5 C 109.498,71.3292 109.832,105.329 109.5,139.5C 108.566,136.344 107.899,133.011 107.5,129.5C 106.5,129.5 105.5,129.5 104.5,129.5C 104.5,124.167 104.5,118.833 104.5,113.5C 105.181,115.158 106.015,116.825 107,118.5C 107.333,117.833 107.667,117.167 108,116.5C 108.5,106.506 108.666,96.5056 108.5,86.5C 108.5,70.1667 108.5,53.8333 108.5,37.5 Z"/></g>
<g><path style="opacity:1" fill="#edfbfb" d="M 84.5,46.5 C 84.6667,84.5015 84.5,122.501 84,160.5C 82.6976,161.085 81.531,161.751 80.5,162.5C 80.5585,132.68 80.3918,102.68 80,72.5C 80.1386,64.4347 79.3053,56.768 77.5,49.5C 77.5,48.8333 77.5,48.1667 77.5,47.5C 78.1174,47.6107 78.6174,47.944 79,48.5C 80.3716,45.8743 82.205,45.2076 84.5,46.5 Z"/></g>
<g><path style="opacity:1" fill="#67809b" d="M 60.5,88.5 C 60.8333,88.5 61.1667,88.5 61.5,88.5C 61.6074,105.612 61.9408,122.612 62.5,139.5C 61.374,142.203 59.7073,142.87 57.5,141.5C 57.5,141.167 57.5,140.833 57.5,140.5C 58.5,140.5 59.5,140.5 60.5,140.5C 60.5,135.167 60.5,129.833 60.5,124.5C 60.5,114.833 60.5,105.167 60.5,95.5C 60.5,93.1667 60.5,90.8333 60.5,88.5 Z"/></g>
<g><path style="opacity:1" fill="#36fdfe" d="M 60.5,124.5 C 60.5,129.833 60.5,135.167 60.5,140.5C 59.5,140.5 58.5,140.5 57.5,140.5C 57.17,133.8 57.5033,127.134 58.5,120.5C 59.1719,121.949 59.8386,123.282 60.5,124.5 Z"/></g>
<g><path style="opacity:0.545" fill="#c9f2fb" d="M 64.5,61.5 C 65.4731,63.9479 65.8064,66.6146 65.5,69.5C 65.5,75.1667 65.5,80.8333 65.5,86.5C 65.5,94.1667 65.5,101.833 65.5,109.5C 64.8536,122.212 65.5203,134.545 67.5,146.5C 67.1667,147.167 66.8333,147.833 66.5,148.5C 65.8826,148.389 65.3826,148.056 65,147.5C 64.5,118.835 64.3334,90.1686 64.5,61.5 Z"/></g>
<g><path style="opacity:1" fill="#4bf7fd" d="M 65.5,109.5 C 66.609,109.557 67.609,109.89 68.5,110.5C 68.5,111.167 68.5,111.833 68.5,112.5C 68.8281,124.012 68.4948,135.346 67.5,146.5C 65.5203,134.545 64.8536,122.212 65.5,109.5 Z"/></g>
<g><path style="opacity:1" fill="#82bcfa" d="M 112.5,122.5 C 113.283,124.328 114.616,125.661 116.5,126.5C 117.171,129.986 116.171,132.653 113.5,134.5C 112.517,130.702 112.183,126.702 112.5,122.5 Z"/></g>
<g><path style="opacity:1" fill="#375d76" d="M 68.5,112.5 C 68.8333,112.5 69.1667,112.5 69.5,112.5C 69.2107,123.532 69.5441,134.532 70.5,145.5C 70.2811,147.915 68.9477,148.915 66.5,148.5C 66.8333,147.833 67.1667,147.167 67.5,146.5C 68.4948,135.346 68.8281,124.012 68.5,112.5 Z"/></g>
<g><path style="opacity:1" fill="#5ef8fc" d="M 76.5,127.5 C 76.6664,136.173 76.4998,144.84 76,153.5C 75.0053,154.066 74.172,154.733 73.5,155.5C 72.5206,152.375 72.1872,149.042 72.5,145.5C 73.1666,137.324 73.8333,128.99 74.5,120.5C 75.1681,122.969 75.8347,125.302 76.5,127.5 Z"/></g>
<g><path style="opacity:1" fill="#252a4f" d="M 77.5,47.5 C 77.5,48.1667 77.5,48.8333 77.5,49.5C 77.6667,84.8349 77.5,120.168 77,155.5C 75.7083,156.791 74.5417,156.791 73.5,155.5C 74.172,154.733 75.0053,154.066 76,153.5C 76.4998,144.84 76.6664,136.173 76.5,127.5C 76.5,117.833 76.5,108.167 76.5,98.5C 76.5,94.1667 76.5,89.8333 76.5,85.5C 76.5,78.5 76.5,71.5 76.5,64.5C 76.1778,58.642 76.5111,52.9753 77.5,47.5 Z"/></g>
<g><path style="opacity:1" fill="#6ab4df" d="M 104.5,129.5 C 105.5,129.5 106.5,129.5 107.5,129.5C 107.899,133.011 108.566,136.344 109.5,139.5C 109.001,142.389 107.501,143.056 105,141.5C 104.501,137.514 104.334,133.514 104.5,129.5 Z"/></g>
<g><path style="opacity:0.706" fill="#b7f5fa" d="M 88.5,106.5 C 88.8333,106.5 89.1667,106.5 89.5,106.5C 89.5,107.833 89.5,109.167 89.5,110.5C 89.5,116.167 89.5,121.833 89.5,127.5C 89.5,134.833 89.5,142.167 89.5,149.5C 90.5,149.5 91.5,149.5 92.5,149.5C 93.0838,152.285 92.0838,153.952 89.5,154.5C 88.5036,138.675 88.1703,122.675 88.5,106.5 Z"/></g>
<g><path style="opacity:1" fill="#73dbee" d="M 100.5,135.5 C 100.185,139.371 100.518,143.038 101.5,146.5C 101.001,149.389 99.501,150.056 97,148.5C 96.5005,142.175 96.3338,135.842 96.5,129.5C 97.4959,129.586 98.3292,129.252 99,128.5C 99.1862,131.036 99.6862,133.369 100.5,135.5 Z"/></g>
<g><path style="opacity:1" fill="#62ecf7" d="M 89.5,127.5 C 91.0984,129.857 92.0984,132.523 92.5,135.5C 92.5,140.167 92.5,144.833 92.5,149.5C 91.5,149.5 90.5,149.5 89.5,149.5C 89.5,142.167 89.5,134.833 89.5,127.5 Z"/></g>
<g><path style="opacity:0.993" fill="#4b5464" d="M 84.5,46.5 C 85.9931,47.3121 86.6598,48.6455 86.5,50.5C 85.1729,86.8401 85.1729,123.173 86.5,159.5C 85.639,163.194 83.639,164.194 80.5,162.5C 81.531,161.751 82.6976,161.085 84,160.5C 84.5,122.501 84.6667,84.5015 84.5,46.5 Z"/></g>
</svg>
